<?xml version="1.0" encoding="UTF-8"?>
<svg version="1.1" xmlns="http://www.w3.org/2000/svg" width="1080" height="1080">
<path d="M0 0 C356.4 0 712.8 0 1080 0 C1080 356.4 1080 712.8 1080 1080 C723.6 1080 367.2 1080 0 1080 C0 723.6 0 367.2 0 0 Z " fill="#FEFEFE" transform="translate(0,0)"/>
<path d="M0 0 C356.4 0 712.8 0 1080 0 C1080 70.62 1080 141.24 1080 214 C1046.67 214 1013.34 214 979 214 C979 176.71 979 139.42 979 101 C689.26 101 399.52 101 101 101 C101 390.74 101 680.48 101 979 C390.74 979 680.48 979 979 979 C979 782.65 979 586.3 979 384 C939.73 384 900.46 384 860 384 C859.34 385.65 858.68 387.3 858 389 C857.04797521 390.78255794 856.06204364 392.54724293 855.05078125 394.296875 C854.4578125 395.32490234 853.86484375 396.35292969 853.25390625 397.41210938 C852.61324219 398.51361328 851.97257813 399.61511719 851.3125 400.75 C850.63796145 401.91467915 849.96348331 403.07939329 849.2890625 404.24414062 C844.1595691 413.08449552 838.91047671 421.8507168 833.62817383 430.60058594 C829.16144859 438.01629045 824.8066207 445.49033016 820.5 453 C814.99045269 462.60727312 809.34919102 472.12477738 803.625 481.60546875 C799.15968479 489.01975255 794.80565503 496.49201404 790.5 504 C784.99045269 513.60727312 779.34919102 523.12477738 773.625 532.60546875 C769.15968479 540.01975255 764.80565503 547.49201404 760.5 555 C754.99045269 564.60727312 749.34919102 574.12477738 743.625 583.60546875 C739.15968479 591.01975255 734.80565503 598.49201404 730.5 606 C724.99470512 615.59985794 719.35814483 625.1102322 713.63818359 634.58349609 C708.37789549 643.31758535 703.27611609 652.13790445 698.19873047 660.97924805 C694.38796717 667.61021692 690.51367327 674.1908438 686.5546875 680.734375 C682.89732163 686.81056876 679.33220503 692.94181893 675.75 699.0625 C670.68345825 707.7183578 665.60968351 716.36950124 660.5 725 C655.47658597 733.48633289 650.48384437 741.99039786 645.5 750.5 C640.34591119 759.2991105 635.18588263 768.09457057 630 776.875 C629.52111328 777.68646484 629.04222656 778.49792969 628.54882812 779.33398438 C627.61340249 780.91612403 626.65496895 782.4849261 625.67210388 784.03804016 C624.37818615 786.33008219 623.47990353 788.30738784 622.57984924 790.74320984 C620.76790932 795.14369106 618.79680491 799.00909923 615 802 C607.38185914 804.7615483 598.6685595 803.73867973 590.71484375 803.46484375 C588.32880841 803.43684371 585.94268645 803.41550267 583.55653381 803.40052795 C577.2955337 803.34342848 571.03980847 803.19626433 564.78088379 803.02996826 C558.38654958 802.87612649 551.99135709 802.80793219 545.59570312 802.73242188 C533.06155978 802.57186347 520.53106117 802.31899961 508 802 C507.94337068 792.4497138 508.03741477 782.9435663 508.515625 773.40234375 C508.63158982 770.93750373 508.74747054 768.47265976 508.86328125 766.0078125 C508.95730225 764.04956543 508.95730225 764.04956543 509.05322266 762.05175781 C509.40701562 754.67959959 509.7438812 747.30666085 510.078125 739.93359375 C510.11462662 739.12937862 510.15112823 738.3251635 510.18873596 737.49657822 C511.19263448 715.2873891 512.02490362 693.07137786 512.87200165 670.85577011 C514.0384439 640.27481362 515.22789631 609.69637745 516.625 579.125 C516.68634721 577.7790942 516.74767751 576.43318763 516.80899048 575.08728027 C517.04184316 569.97987428 517.27517205 564.87249035 517.50917053 559.76513672 C518.04156552 548.13352633 518.56290762 536.50151007 519.05462646 524.86810303 C519.14043087 522.85455703 519.2279162 520.84108164 519.31744385 518.82769775 C519.9366136 504.87831027 520.10193245 490.96269526 520 477 C519.62415771 477.67651611 519.24831543 478.35303223 518.86108398 479.05004883 C518.32813721 480.00935303 517.79519043 480.96865723 517.24609375 481.95703125 C516.64659912 483.0361377 516.04710449 484.11524414 515.42944336 485.22705078 C514.08267356 487.6512448 512.73582132 490.07539299 511.38891602 492.49951172 C507.97670344 498.64086769 504.56527478 504.78265507 501.15625 510.92578125 C494.55030109 522.8275583 487.92403284 534.71749003 481.26708984 546.59082031 C477.01604972 554.1765944 472.78411245 561.77281228 468.5625 569.375 C467.94133301 570.49358398 467.32016602 571.61216797 466.68017578 572.76464844 C463.51012175 578.47484667 460.34228988 584.18627258 457.17578125 589.8984375 C451.34413717 600.41334037 445.49604535 610.9172066 439.5625 621.375 C434.31610828 630.62323398 429.16444848 639.92175448 424.03790283 649.23669434 C418.80472665 658.74458266 413.52786566 668.22673203 408.21679688 677.69140625 C403.98063132 685.24262321 399.76553322 692.80529306 395.5625 700.375 C394.94125244 701.49374512 394.32000488 702.61249023 393.67993164 703.76513672 C390.50993126 709.47515681 387.34220174 715.18643158 384.17578125 720.8984375 C378.34413749 731.41333979 372.4960995 741.9172376 366.5625 752.375 C359.54173427 764.74973096 352.68281089 777.21287652 345.83007812 789.68115234 C343.56289379 793.79269235 341.28018981 797.89565834 339 802 C300.72 802 262.44 802 223 802 C222.92659081 761.16491586 222.92659081 761.16491586 222.94189453 746.09375 C222.94295771 745.04571701 222.94402089 743.99768402 222.94511628 742.91789246 C223.00775296 690.34368316 223.45657667 637.76945206 223.8168896 585.19663703 C223.90311133 572.61336226 223.98740546 560.03007599 224.07006836 547.44677734 C224.08100953 545.78188546 224.09195084 544.11699359 224.10289228 542.45210171 C224.11100787 541.21718254 224.11100787 541.21718254 224.11928741 539.9573155 C224.1246942 539.1346538 224.13010099 538.31199209 224.13567162 537.46440125 C224.14107347 536.64244717 224.14647532 535.8204931 224.15204086 534.97363132 C224.49722656 482.48217464 224.84859602 429.99075291 225.28955078 377.5 C225.30034597 376.21411987 225.31114116 374.92823975 225.32226348 373.60339355 C225.53764562 348.0688352 225.77098231 322.53444042 226 297 C258.34 297 290.68 297 324 297 C324.06012551 332.95970996 323.89562408 368.89604742 323.39421272 404.85140586 C323.30703547 411.17480687 323.22473866 417.49827161 323.14196777 423.82173157 C323.0028694 434.40877154 322.86168965 444.99578148 322.71826172 455.58276367 C322.70928987 456.2450767 322.70031803 456.90738973 322.69107431 457.58977286 C322.65473168 460.27214145 322.61837623 462.95450987 322.58200577 465.63687808 C322.48160868 473.04168736 322.38154306 480.44650108 322.28173828 487.85131836 C322.27277729 488.51609366 322.26381631 489.18086896 322.25458378 489.86578896 C322.10330583 501.09442448 321.95447367 512.32309163 321.80709887 523.55177909 C321.7251492 529.78373478 321.64197398 536.01566842 321.55558777 542.24756432 C321.13175089 572.83379247 320.90267383 603.41075006 321 634 C321.47780411 633.16384281 321.95560822 632.32768562 322.44789124 631.46619034 C387.00000001 518.49999999 387.00000001 518.49999999 387.99996948 516.75006104 C388.66674664 515.58319593 389.33351503 514.41632581 390.00027466 513.24945068 C391.66517906 510.33577909 393.33023486 507.42219422 394.99560547 504.50878906 C398.01680142 499.22315109 401.03682799 493.93686097 404.05130005 488.64738464 C405.74179075 485.68116606 407.43315935 482.7154488 409.125 479.75 C409.45755798 479.1670517 409.79011597 478.58410339 410.13275146 477.98348999 C414.74788047 469.89754031 419.41621812 461.84427229 424.125 453.8125 C429.45228942 444.724328 434.62763538 435.55943841 439.75048828 426.35473633 C444.311311 418.17949662 449.01021626 410.09197544 453.75 402.01953125 C457.92243959 394.8947181 461.98495244 387.71453859 466 380.5 C470.57572123 372.27800092 475.23582369 364.11425786 480 356 C485.34131406 346.90034314 490.55598409 337.73762538 495.6796875 328.51367188 C501.36530945 318.28940369 507.19367212 308.16107379 513 298 C548.97 298 584.94 298 622 298 C620.87288993 340.83018276 620.87288993 340.83018276 619.87133789 361.60791016 C619.53161985 368.68469269 619.20754018 375.76218196 618.88671875 382.83984375 C618.85171139 383.61118526 618.81670403 384.38252678 618.78063583 385.17724228 C617.78728854 407.15851551 616.96743931 429.14682146 616.12844467 451.13441086 C614.96122652 481.71860477 613.77363763 512.30041599 612.375 542.875 C612.34450436 543.54257576 612.31400871 544.21015152 612.28258896 544.89795685 C612.01927976 550.66184744 611.75535307 556.4257097 611.49082947 562.18954468 C610.94958335 574.0190064 610.43623845 585.84955573 609.94537354 597.68121338 C609.85875994 599.76308269 609.77120028 601.84491293 609.68255615 603.92669678 C609.24208134 614.29092442 608.85893973 624.62423325 609 635 C609.31001953 634.44465576 609.62003906 633.88931152 609.93945312 633.31713867 C617.09223712 620.52776306 624.41488436 607.85372143 631.9140625 595.2644043 C636.50795511 587.54643733 641.02771702 579.78903941 645.5 572 C651.25338394 561.98269068 657.11315338 552.03321028 663.01953125 542.10546875 C667.57401911 534.43801055 672.05828011 526.7332681 676.5 519 C682.25354224 508.98278015 688.11315185 499.03321285 694.01953125 489.10546875 C698.57401911 481.43801055 703.05828011 473.7332681 707.5 466 C713.25354224 455.98278015 719.11315185 446.03321285 725.01953125 436.10546875 C729.57401911 428.43801055 734.05828011 420.7332681 738.5 413 C744.25354224 402.98278015 750.11315185 393.03321285 756.01953125 383.10546875 C760.5740204 375.43800838 765.05814871 367.73319412 769.5 360 C775.82586734 348.99022086 782.26694553 338.05361204 788.7578125 327.140625 C794.52246916 317.4373171 800.25821832 307.71686131 806 298 C896.42 298 986.84 298 1080 298 C1080 556.06 1080 814.12 1080 1080 C723.6 1080 367.2 1080 0 1080 C0 723.6 0 367.2 0 0 Z " fill="#6874D4" transform="translate(0,0)"/>
</svg>
