<?xml version="1.0" encoding="UTF-8"?>
<svg version="1.1" xmlns="http://www.w3.org/2000/svg" width="1080" height="1080">
<path d="M0 0 C356.4 0 712.8 0 1080 0 C1080 356.4 1080 712.8 1080 1080 C723.6 1080 367.2 1080 0 1080 C0 723.6 0 367.2 0 0 Z " fill="#FEFEFE" transform="translate(0,0)"/>
<path d="M0 0 C356.4 0 712.8 0 1080 0 C1080 70.62 1080 141.24 1080 214 C1046.67 214 1013.34 214 979 214 C979 176.71 979 139.42 979 101 C689.26 101 399.52 101 101 101 C101 390.74 101 680.48 101 979 C390.74 979 680.48 979 979 979 C979 782.65 979 586.3 979 384 C939.73 384 900.46 384 860 384 C859.34 385.65 858.68 387.3 858 389 C857.04797521 390.78255794 856.06204364 392.54724293 855.05078125 394.296875 C854.4578125 395.32490234 853.86484375 396.35292969 853.25390625 397.41210938 C852.61324219 398.51361328 851.97257813 399.61511719 851.3125 400.75 C850.63796145 401.91467915 849.96348331 403.07939329 849.2890625 404.24414062 C844.1595691 413.08449552 838.91047671 421.8507168 833.62817383 430.60058594 C829.16144859 438.01629045 824.8066207 445.49033016 820.5 453 C814.99045269 462.60727312 809.34919102 472.12477738 803.625 481.60546875 C799.15968479 489.01975255 794.80565503 496.49201404 790.5 504 C784.99045269 513.60727312 779.34919102 523.12477738 773.625 532.60546875 C769.15968389 540.01975404 764.80571751 547.49204878 760.5 555 C754.9622654 564.65475981 749.29738537 574.22348248 743.55029297 583.75488281 C737.55319874 593.71202754 731.70413408 603.75225023 725.86279297 613.80126953 C722.48354568 619.60400845 719.08507508 625.39548112 715.6875 631.1875 C714.97053529 632.40990914 714.25357567 633.63232125 713.53662109 634.85473633 C712.45198686 636.70401932 711.367331 638.5532896 710.28259277 640.4025116 C707.71929969 644.77258522 705.1580331 649.14384225 702.59765625 653.515625 C693.58653644 668.9004821 684.53967346 684.26367819 675.45703125 699.60644531 C668.40861513 711.5150728 661.39094244 723.44133482 654.39758301 735.38235474 C649.27762241 744.12405237 644.13903489 752.85442448 638.97729492 761.5715332 C635.80111413 766.93976112 632.63958219 772.31636206 629.48828125 777.69921875 C628.90703995 778.69189255 628.90703995 778.69189255 628.3140564 779.70462036 C626.39422037 782.98393457 624.47560878 786.26395781 622.55859375 789.54492188 C621.85809717 790.74220169 621.15757745 791.93946797 620.45703125 793.13671875 C619.83803955 794.19592529 619.21904785 795.25513184 618.58129883 796.34643555 C617.43931948 798.26278163 616.23742899 800.14385651 615 802 C613.08284569 802.36914349 613.08284569 802.36914349 610.69735718 802.36076355 C609.79429337 802.36488754 608.89122955 802.36901154 607.96080017 802.3732605 C606.9674617 802.36247467 605.97412323 802.35168884 604.95068359 802.34057617 C603.90675949 802.34101425 602.86283539 802.34145233 601.78727722 802.34190369 C598.32414278 802.33980756 594.86148775 802.31643734 591.3984375 802.29296875 C589.0023322 802.28737574 586.60622348 802.28310425 584.21011353 802.28010559 C577.89382508 802.26863368 571.57774255 802.2391462 565.26153564 802.20599365 C558.82021877 802.17534335 552.37886873 802.16161104 545.9375 802.14648438 C533.29157865 802.11427885 520.64580026 802.06362821 508 802 C507.93205979 791.59154885 508.1024528 781.22557574 508.55078125 770.82421875 C508.60997272 769.396836 508.66889397 767.96944202 508.72756958 766.54203796 C508.8855103 762.72159226 509.04769166 758.90133767 509.21076584 755.08110809 C509.34916857 751.82475947 509.48486178 748.56829992 509.62061787 745.31184006 C510.29356366 729.17924238 510.98956201 713.04777101 511.7265625 696.91796875 C511.81423889 694.99899025 511.81423889 694.99899025 511.90368652 693.04124451 C512.14164004 687.83871346 512.37965007 682.63618509 512.61828613 677.4336853 C514.0551458 646.0294292 515.24626867 614.61535228 516.43329906 583.20080853 C516.63280705 577.92549653 516.83371148 572.65023836 517.03515625 567.375 C517.07415857 566.35101545 517.1131609 565.32703091 517.15334511 564.27201653 C517.79460723 547.50662673 518.53804073 530.74730442 519.3764801 513.99060059 C519.98440434 501.6515197 520.24683788 489.35560737 520 477 C519.62415771 477.67651611 519.24831543 478.35303223 518.86108398 479.05004883 C518.32813721 480.00935303 517.79519043 480.96865723 517.24609375 481.95703125 C516.64651855 483.03629883 516.04694336 484.11556641 515.42919922 485.22753906 C514.08331585 487.65014586 512.7372678 490.07266105 511.39111328 492.49511719 C507.96512162 498.66064263 504.54074688 504.82705002 501.12109375 510.99609375 C495.30808849 521.47867361 489.47763458 531.94965533 483.5625 542.375 C478.31610828 551.62323398 473.16444848 560.92175448 468.03790283 570.23669434 C462.80472665 579.74458266 457.52786566 589.22673203 452.21679688 598.69140625 C447.98063144 606.242623 443.76548718 613.80526764 439.5625 621.375 C438.94052734 622.49519531 438.31855469 623.61539063 437.67773438 624.76953125 C435.78482706 628.17950492 433.89233229 631.58970719 432 635 C424.11434725 649.21123818 416.21526713 663.41444324 408.26708984 677.59082031 C404.01604972 685.1765944 399.78411245 692.77281228 395.5625 700.375 C394.94133301 701.49358398 394.32016602 702.61216797 393.68017578 703.76464844 C390.51012175 709.47484667 387.34228988 715.18627258 384.17578125 720.8984375 C378.34413749 731.41333979 372.4960995 741.9172376 366.5625 752.375 C359.54173427 764.74973096 352.68281089 777.21287652 345.83007812 789.68115234 C343.56289379 793.79269235 341.28018981 797.89565834 339 802 C300.72 802 262.44 802 223 802 C222.92269943 751.90923237 222.92269943 751.90923237 222.94140625 733.1640625 C222.94264559 731.91785755 222.94388493 730.6716526 222.94516182 729.38768387 C222.98271296 696.2162618 223.1647745 663.04572027 223.375 629.875 C223.38003886 629.07818817 223.38507772 628.28137634 223.39026928 627.4604187 C223.89500897 547.81320433 224.57240276 468.16710172 225.33935547 376.28857422 C225.34950754 375.07473376 225.35965962 373.86089329 225.37011933 372.61026978 C225.57826902 347.74016451 225.78947906 322.87008539 226 298 C258.34 298 290.68 298 324 298 C324.11333628 342.7602763 323.7135822 387.49923948 323.16577756 432.25523901 C323.0624577 440.71161683 322.96316748 449.16803954 322.86432743 457.62447071 C322.51213169 487.75681184 322.15580611 517.88910215 321.71264648 548.02026367 C321.70096439 548.81602334 321.68928231 549.611783 321.67724621 550.4316566 C321.56729148 557.90862838 321.45575733 565.38557124 321.33884382 572.86243767 C321.02092618 593.24290059 320.8594593 613.61727358 321 634 C321.40089844 633.29842773 321.80179687 632.59685547 322.21484375 631.87402344 C403.06445311 490.38720705 403.06445311 490.38720705 404.10264587 488.57037354 C404.79304943 487.36216478 405.48344862 486.15395353 406.17384338 484.94573975 C407.87547702 481.96783674 409.57718422 478.98997582 411.27905273 476.01220703 C414.23582897 470.83848578 417.1920112 465.66443278 420.14453125 460.48828125 C425.48783033 451.12335343 430.85697368 441.77388933 436.25 432.4375 C443.53466514 419.8251882 450.76505098 407.18226561 457.98388672 394.53222656 C460.98733176 389.2695208 463.99429965 384.00882814 467.00100708 378.74798584 C468.66748282 375.83207328 470.33372982 372.91603002 472 370 C472.66666557 368.83333271 473.33333224 367.66666604 474 366.5 C474.33 365.9225 474.66 365.345 475 364.75 C476.5 362.125 476.5 362.125 478 359.5 C478.49491692 358.63389351 478.49491692 358.63389351 478.99983215 357.75028992 C479.66705393 356.58265436 480.33428009 355.4150213 481.00151062 354.24739075 C482.65971998 351.3455686 484.31783834 348.44369455 485.97583008 345.54174805 C489.07649749 340.11491141 492.17782486 334.68845655 495.28170776 329.26345825 C496.73455358 326.72405759 498.18699359 324.18442493 499.6394043 321.64477539 C500.32637689 320.44381353 501.01354435 319.24296312 501.70092773 318.04223633 C502.65919871 316.36829161 503.61671937 314.69391744 504.57421875 313.01953125 C505.11651123 312.07182861 505.65880371 311.12412598 506.2175293 310.14770508 C508.50274741 306.11218706 510.74776696 302.05401947 513 298 C548.97 298 584.94 298 622 298 C621.40118388 320.75501239 620.78431055 343.48161973 619.81448364 366.2197876 C619.65003571 370.08912008 619.48846671 373.95856715 619.32756901 377.82804871 C618.67325489 393.55204848 617.99566163 409.27488379 617.27734375 424.99609375 C617.21864609 426.28084091 617.15994843 427.56558807 617.09947205 428.88926697 C616.86037502 434.11697506 616.62122679 439.34468071 616.38143921 444.57235718 C614.94467288 475.97459268 613.75364498 507.38665049 612.56670284 538.79917336 C612.36719262 544.07449132 612.16625185 549.34975419 611.96484375 554.625 C611.92588297 555.6485899 611.88692219 556.67217979 611.84678078 557.72678757 C611.41987738 568.89687698 610.96364106 580.06473605 610.43408203 591.23046875 C610.38743314 592.21478882 610.34078424 593.19910889 610.29272175 594.21325684 C610.071762 598.84706502 609.84581213 603.48056544 609.61253357 608.11376953 C609.16893764 617.08747362 608.87197946 626.01264167 609 635 C609.41654343 634.25030945 609.83308685 633.5006189 610.26225281 632.72821045 C622.82638793 610.12374929 622.82638793 610.12374929 628.32519531 601.08544922 C632.35317154 594.45464171 636.26745967 587.75742446 640.1875 581.0625 C640.55686676 580.43186646 640.92623352 579.80123291 641.30679321 579.15148926 C646.77902949 569.80741998 652.23777559 560.45550538 657.69018555 551.09985352 C662.64341097 542.6034758 667.61723163 534.11926167 672.59326172 525.63623047 C677.40636656 517.43045791 682.21001709 509.21930092 687 501 C692.51529517 491.53611013 698.05109694 482.08439614 703.59326172 472.63623047 C708.40636656 464.43045791 713.21001709 456.21930092 718 448 C723.51529517 438.53611013 729.05109694 429.08439614 734.59326172 419.63623047 C739.40636656 411.43045791 744.21001709 403.21930092 749 395 C754.51529517 385.53611013 760.05109694 376.08439614 765.59326172 366.63623047 C770.40636677 358.43045756 775.20989381 350.21922935 780 342 C785.02436728 333.381221 790.05553123 324.76644453 795.09667969 316.1574707 C795.86001925 314.8536208 796.6230448 313.54958699 797.38574219 312.24536133 C798.44898832 310.42737935 799.51340253 308.61008638 800.578125 306.79296875 C801.19075195 305.7464917 801.80337891 304.70001465 802.43457031 303.62182617 C803.57215776 301.71656236 804.76909847 299.84635229 806 298 C896.42 298 986.84 298 1080 298 C1080 556.06 1080 814.12 1080 1080 C723.6 1080 367.2 1080 0 1080 C0 723.6 0 367.2 0 0 Z " fill="#000000" transform="translate(0,0)"/>
</svg>
