<svg width="54" height="54" viewBox="0 0 54 54" fill="none" xmlns="http://www.w3.org/2000/svg">
<g clip-path="url(#clip0_3_24)">
<mask id="mask0_3_24" style="mask-type:luminance" maskUnits="userSpaceOnUse" x="0" y="0" width="54" height="54">
<path d="M54 0H0V54H54V0Z" fill="white"/>
</mask>
<g mask="url(#mask0_3_24)">
<path d="M10.0374 0H3.17438C1.42122 0 0 1.42794 0 3.1894V10.0849C0 11.8464 1.42122 13.2743 3.17438 13.2743H10.0374C11.7906 13.2743 13.2118 11.8464 13.2118 10.0849V3.1894C13.2118 1.42794 11.7906 0 10.0374 0Z" fill="#FBF9F4"/>
<path d="M29.1606 0H22.2976C20.5444 0 19.1232 1.42794 19.1232 3.1894V10.0849C19.1232 11.8464 20.5444 13.2743 22.2976 13.2743H29.1606C30.9138 13.2743 32.335 11.8464 32.335 10.0849V3.1894C32.335 1.42794 30.9138 0 29.1606 0Z" fill="#FBF9F4"/>
<path d="M48.2896 0H41.4266C39.6734 0 38.2522 1.42794 38.2522 3.1894V10.0849C38.2522 11.8464 39.6734 13.2743 41.4266 13.2743H48.2896C50.0428 13.2743 51.464 11.8464 51.464 10.0849V3.1894C51.464 1.42794 50.0428 0 48.2896 0Z" fill="#FBF9F4"/>
<path d="M10.0374 19.2136H3.17438C1.42122 19.2136 0 20.6416 0 22.403V29.2985C0 31.06 1.42122 32.4879 3.17438 32.4879H10.0374C11.7906 32.4879 13.2118 31.06 13.2118 29.2985V22.403C13.2118 20.6416 11.7906 19.2136 10.0374 19.2136Z" fill="#FBF9F4"/>
<path d="M29.1606 19.2136H22.2976C20.5444 19.2136 19.1232 20.6416 19.1232 22.403V29.2985C19.1232 31.06 20.5444 32.4879 22.2976 32.4879H29.1606C30.9138 32.4879 32.335 31.06 32.335 29.2985V22.403C32.335 20.6416 30.9138 19.2136 29.1606 19.2136Z" fill="#FBF9F4"/>
<path d="M48.2896 19.2136H41.4266C39.6734 19.2136 38.2522 20.6416 38.2522 22.403V29.2985C38.2522 31.06 39.6734 32.4879 41.4266 32.4879H48.2896C50.0428 32.4879 51.464 31.06 51.464 29.2985V22.403C51.464 20.6416 50.0428 19.2136 48.2896 19.2136Z" fill="#FBF9F4"/>
<path d="M10.0374 38.4331H3.17438C1.42122 38.4331 0 39.861 0 41.6225V48.518C0 50.2795 1.42122 51.7074 3.17438 51.7074H10.0374C11.7906 51.7074 13.2118 50.2795 13.2118 48.518V41.6225C13.2118 39.861 11.7906 38.4331 10.0374 38.4331Z" fill="#FBF9F4"/>
<path d="M29.1606 38.4331H22.2976C20.5444 38.4331 19.1232 39.861 19.1232 41.6225V48.518C19.1232 50.2795 20.5444 51.7074 22.2976 51.7074H29.1606C30.9138 51.7074 32.335 50.2795 32.335 48.518V41.6225C32.335 39.861 30.9138 38.4331 29.1606 38.4331Z" fill="#FBF9F4"/>
<path d="M48.2896 38.4331H41.4266C39.6734 38.4331 38.2522 39.861 38.2522 41.6225V48.518C38.2522 50.2795 39.6734 51.7074 41.4266 51.7074H48.2896C50.0428 51.7074 51.464 50.2795 51.464 48.518V41.6225C51.464 39.861 50.0428 38.4331 48.2896 38.4331Z" fill="#FBF9F4"/>
</g>
</g>
<defs>
<clipPath id="clip0_3_24">
<rect width="54" height="54" fill="white"/>
</clipPath>
</defs>
</svg>
