<svg width="313" height="114" viewBox="0 0 313 114" fill="none" xmlns="http://www.w3.org/2000/svg">
<g clip-path="url(#clip0_1_27)" filter="url(#filter0_d_1_27)">
<path d="M141.462 33.1766V78.8803H128.263V74.3265C126.452 76.1555 124.283 77.5991 121.891 78.5693C119.498 79.5395 116.93 80.0159 114.346 79.9694C101.693 79.9694 92.1109 69.6644 92.1109 56.0412C92.1109 42.418 101.693 32.1003 114.346 32.1003C116.931 32.0522 119.498 32.5279 121.891 33.4982C124.285 34.4685 126.453 35.913 128.263 37.7432V33.1766H141.462ZM128.263 56.0285C128.263 49.5767 123.472 44.7363 116.966 44.7363C110.46 44.7363 105.759 49.5767 105.759 56.0285C105.759 62.4802 110.55 67.3206 116.966 67.3206C123.382 67.3206 128.263 62.4802 128.263 56.0285Z" fill="#FBF9F4"/>
<path d="M198.969 92.3251L185.379 95.9809C185.019 93.0257 182.489 91.0513 178.783 91.0513H164.416C155.469 91.0513 149.593 85.9561 149.593 78.3134C149.593 73.473 152.033 68.8109 155.919 66.4799C153.981 64.6413 152.444 62.4286 151.403 59.9782C150.361 57.5277 149.837 54.8916 149.862 52.2325C149.862 40.6729 159.175 32.0684 171.648 32.0684C174.951 32.0723 178.222 32.7103 181.281 33.9472C182.669 29.0495 187.28 25.9224 193.606 25.9224H197.492V38.0234H194.236C192.071 38.0234 190.35 39.0997 189.9 40.8066C192.274 44.1642 193.538 48.1701 193.516 52.2707C193.516 63.8304 184.114 72.4348 171.68 72.4348C169.387 72.4585 167.103 72.1561 164.897 71.5368C164.283 71.8992 163.77 72.4097 163.407 73.021C163.045 73.6322 162.844 74.3245 162.823 75.0334C162.823 77.0969 164.538 78.4408 166.978 78.4408H181.346C190.62 78.4344 197.222 83.5423 198.969 92.3251ZM163.452 52.2644C163.452 56.7226 166.978 60.06 171.68 60.06C176.381 60.06 179.99 56.7417 179.99 52.2644C179.99 47.787 176.375 44.4688 171.68 44.4688C166.856 44.4688 163.42 47.7806 163.42 52.2644H163.452Z" fill="#FBF9F4"/>
<path d="M275.847 49.0353V78.8803H262.655V52.9777C262.655 48.0545 259.489 44.7363 254.607 44.7363C249.546 44.7363 246.027 48.1437 246.027 53.1624V78.8803H232.829V52.9777C232.829 48.0545 229.669 44.7363 224.788 44.7363C219.727 44.7363 216.201 48.1437 216.201 53.1624V78.8803H203.009V33.1766H216.201V37.5648C219.547 33.9791 223.972 32.1003 229.303 32.1003C235.539 32.1003 240.51 34.6988 243.432 39.1762C247.138 34.5205 252.353 32.1003 258.769 32.1003C269.161 32.1003 275.847 38.8195 275.847 49.0353Z" fill="#FBF9F4"/>
<path d="M298.737 32.1003H285.545V78.8803H298.737V32.1003Z" fill="#FBF9F4"/>
<path d="M278.853 22.8908H100.081L66.8767 78.8803H52.4967L54.3271 34.8071L29.5746 78.8803H14L14.456 11.3057H27.6607L27.0955 56.7482L53.2931 11.3057H67.8915L66.0033 56.7482L92.7981 11.3057H278.853V22.8908Z" fill="#FBF9F4"/>
<path d="M295.551 10H288.095C286.19 10 284.646 11.5312 284.646 13.4201V20.8145C284.646 22.7034 286.19 24.2346 288.095 24.2346H295.551C297.456 24.2346 299 22.7034 299 20.8145V13.4201C299 11.5312 297.456 10 295.551 10Z" fill="#FBF9F4"/>
</g>
<defs>
<filter id="filter0_d_1_27" x="0.8" y="0.8" width="311.4" height="112.4" filterUnits="userSpaceOnUse" color-interpolation-filters="sRGB">
<feFlood flood-opacity="0" result="BackgroundImageFix"/>
<feColorMatrix in="SourceAlpha" type="matrix" values="0 0 0 0 0 0 0 0 0 0 0 0 0 0 0 0 0 0 127 0" result="hardAlpha"/>
<feOffset dy="4"/>
<feGaussianBlur stdDeviation="6.6"/>
<feComposite in2="hardAlpha" operator="out"/>
<feColorMatrix type="matrix" values="0 0 0 0 0 0 0 0 0 0 0 0 0 0 0 0 0 0 0.25 0"/>
<feBlend mode="normal" in2="BackgroundImageFix" result="effect1_dropShadow_1_27"/>
<feBlend mode="normal" in="SourceGraphic" in2="effect1_dropShadow_1_27" result="shape"/>
</filter>
<clipPath id="clip0_1_27">
<rect width="285" height="86" fill="white" transform="translate(14 10)"/>
</clipPath>
</defs>
</svg>
